<svg width="18" height="18" viewBox="0 0 18 18" fill="none" xmlns="http://www.w3.org/2000/svg">
<path d="M16 1H2C1.44772 1 1 1.44771 1 2V16.3721C1 16.9244 1.44772 17.3721 2 17.3721H16C16.5523 17.3721 17 16.9244 17 16.3721V2C17 1.44772 16.5523 1 16 1Z" stroke="#373F89" stroke-linejoin="round"/>
<path d="M3.23254 3.23254H15.1395V6.20929H3.23254V3.23254Z" fill="#373F89" stroke="#373F89"/>
<rect x="3.23254" y="7.69763" width="2.97674" height="2.97674" fill="#373F89"/>
<rect x="3.23254" y="12.1628" width="2.97674" height="2.97674" fill="#373F89"/>
<rect x="7.69763" y="7.69763" width="2.97674" height="2.97674" fill="#373F89"/>
<rect x="7.69763" y="12.1628" width="2.97674" height="2.97674" fill="#373F89"/>
<rect x="12.1628" y="7.69763" width="2.97674" height="2.97674" fill="#373F89"/>
<rect x="12.1628" y="12.1628" width="2.97674" height="2.97674" fill="#373F89"/>
</svg>
