<svg width="13" height="13" viewBox="0 0 13 13" fill="none" xmlns="http://www.w3.org/2000/svg">
<path d="M1.99992 0.62273L6.49992 5.12273L10.9999 0.636366C11.0885 0.546215 11.1949 0.47543 11.3122 0.428486C11.4296 0.381542 11.5554 0.359461 11.6817 0.363639C11.9296 0.379681 12.1632 0.485399 12.3389 0.661054C12.5145 0.836708 12.6202 1.07029 12.6363 1.31818C12.6375 1.44007 12.614 1.56093 12.5671 1.67345C12.5202 1.78596 12.451 1.88778 12.3636 1.97273L7.84992 6.5L12.3636 11.0273C12.5408 11.1991 12.639 11.4364 12.6363 11.6818C12.6202 11.9297 12.5145 12.1633 12.3389 12.339C12.1632 12.5146 11.9296 12.6203 11.6817 12.6364C11.5554 12.6405 11.4296 12.6185 11.3122 12.5715C11.1949 12.5246 11.0885 12.4538 10.9999 12.3636L6.49992 7.87728L2.01356 12.3636C1.92496 12.4538 1.81862 12.5246 1.70126 12.5715C1.5839 12.6185 1.45807 12.6405 1.33174 12.6364C1.07922 12.6232 0.840527 12.517 0.661728 12.3382C0.482928 12.1594 0.376704 11.9207 0.36356 11.6682C0.362327 11.5463 0.385864 11.4254 0.432745 11.3129C0.479626 11.2004 0.548874 11.0986 0.636288 11.0136L5.14992 6.5L0.622651 1.97273C0.537699 1.88664 0.470971 1.7843 0.426455 1.67184C0.381939 1.55938 0.360548 1.4391 0.36356 1.31818C0.379603 1.07029 0.485321 0.836708 0.660975 0.661054C0.83663 0.485399 1.07021 0.379681 1.31811 0.363639C1.44345 0.357685 1.56869 0.377618 1.68599 0.422194C1.8033 0.46677 1.91016 0.535034 1.99992 0.62273Z" fill="#4650AD"/>
</svg>
